<svg width="135" height="48" viewBox="0 0 135 48" fill="none" xmlns="http://www.w3.org/2000/svg">
<path d="M29.6315 20.5889C29.6719 19.8219 29.3893 19.0549 28.7837 18.53L17.1168 8.35679C17.0361 8.27605 16.9553 8.23568 16.8746 8.23568C16.8342 8.19531 16.7535 8.19531 16.6727 8.19531C16.592 8.19531 16.5516 8.19531 16.4709 8.23568C16.3901 8.27605 16.3094 8.31642 16.2287 8.35679L4.52134 18.5704C3.95616 19.0549 3.6332 19.8219 3.71394 20.5889L4.80393 35.5258C4.88467 36.8177 5.97466 37.8673 7.30687 37.8673H25.9982C27.3304 37.8673 28.4204 36.8581 28.5012 35.5258L29.6315 20.5889Z" fill="#0070B9"/>
<path d="M16.7132 2.58374C16.3902 2.58374 16.0673 2.62411 15.7443 2.70485C15.0984 2.86633 14.614 3.18929 13.8066 3.87558L13.7258 3.95632L0.44407 15.5425H0.403701C0.12111 15.7847 0 16.1077 0 16.471C0 16.7536 0.12111 17.0362 0.322961 17.2784C0.565181 17.561 0.928511 17.7225 1.25147 17.7225C1.53406 17.7225 1.81665 17.6014 2.05887 17.3996L15.3406 5.81334L15.4617 5.7326C15.9462 5.3289 16.148 5.20779 16.3499 5.12705H16.3902C16.471 5.08668 16.5921 5.08668 16.6728 5.08668C16.7536 5.08668 16.8747 5.08668 16.9554 5.12705C17.1976 5.20779 17.4399 5.3289 18.005 5.85372L31.2868 17.4399H31.3272C31.5694 17.6418 31.852 17.7225 32.1346 17.7225C32.4979 17.7225 32.8209 17.561 33.0631 17.2784C33.2649 17.0362 33.386 16.7536 33.386 16.471C33.386 16.1077 33.2246 15.7847 32.942 15.5425L29.672 12.7166V5.57112C29.672 5.28853 29.6316 5.20779 29.5912 5.08668C29.5509 4.96557 29.4701 4.88483 29.349 4.84446C29.2279 4.80409 29.1472 4.76372 28.8646 4.76372H25.5139C25.2313 4.76372 25.1505 4.80409 25.0294 4.84446C24.9083 4.88483 24.8276 4.96557 24.7872 5.08668C24.7065 5.16742 24.7065 5.28853 24.7065 5.57112V8.35666L19.7006 3.95632L19.6198 3.87558C18.8124 3.18929 18.328 2.9067 17.6821 2.70485C17.3591 2.62411 17.0362 2.58374 16.7132 2.58374Z" fill="#4D4D4D"/>
<path d="M16.7134 12.5955C16.5923 12.5955 16.4712 12.6358 16.3904 12.7166L7.63013 20.3869C7.18606 20.7502 6.98421 21.3154 7.02458 21.8806L7.83198 33.0631C7.91272 34.032 8.72012 34.799 9.689 34.799H23.6974C24.6663 34.799 25.5141 34.032 25.5544 33.0631L26.3618 21.8806C26.4022 21.275 26.16 20.7098 25.7159 20.3465L16.996 12.7166C16.9152 12.6358 16.8345 12.5955 16.7134 12.5955Z" fill="white"/>
<path d="M16.5923 25.3927C13.9278 25.3927 11.6671 24.9487 10.8193 24.3431V24.7872C11.6671 25.3927 13.9278 25.8368 16.5923 25.8368C19.3374 25.8368 21.6385 25.3927 22.4459 24.7468V24.3027C21.6789 24.9083 19.3374 25.3927 16.5923 25.3927Z" fill="#0070B9"/>
<path d="M11.021 23.9395C11.1825 24.0606 11.5054 24.2624 12.1917 24.4643C12.6762 21.3154 14.3717 18.9336 16.3902 18.8125V18.8528C15.4617 19.2565 14.735 21.7191 14.5736 24.868C15.2195 24.9487 15.9461 24.9487 16.6324 24.9487C17.3591 24.9487 18.0454 24.9083 18.7317 24.868C18.5298 21.6787 17.8032 19.1758 16.8747 18.8125V18.7721C18.8528 18.9739 20.508 21.3154 20.9924 24.4643C21.6787 24.2624 22.042 24.1009 22.2035 23.9395C21.9209 21.1135 19.6602 18.8932 16.8747 18.7721V18.6106C17.0361 18.5299 17.1169 18.4088 17.1976 18.2876C17.5206 18.5299 18.328 18.6913 19.2969 18.6913C20.508 18.6913 21.5172 18.4088 21.5172 18.0454C21.5172 17.6821 20.508 17.3995 19.2969 17.3995C18.328 17.3995 17.5206 17.561 17.1976 17.8032C17.1169 17.561 16.8747 17.3995 16.6324 17.3995C16.3902 17.3995 16.1884 17.561 16.0673 17.7628C15.7443 17.5206 14.9369 17.3591 14.0084 17.3591C12.7973 17.3591 11.788 17.6417 11.788 18.0051C11.788 18.3684 12.7973 18.651 14.0084 18.651C14.9369 18.651 15.7039 18.4895 16.0673 18.2473C16.148 18.3684 16.2287 18.4895 16.3902 18.5702V18.7317C13.6047 18.9336 11.3036 21.1135 11.021 23.9395ZM16.3498 18.0858C16.3498 17.9243 16.471 17.7628 16.6728 17.7628C16.8343 17.7628 16.9958 17.8839 16.9958 18.0858C16.9958 18.2473 16.8747 18.4088 16.6728 18.4088C16.471 18.4088 16.3498 18.2473 16.3498 18.0858Z" fill="#0070B9"/>
<path d="M22.4054 25.1506C22.2439 25.2717 22.0017 25.3929 21.7595 25.514C21.8806 25.8369 21.921 26.281 21.8402 26.8865C21.7191 27.8554 21.275 28.0976 21.1136 28.138H21.0732L20.8713 28.1784L20.831 28.4206C20.1447 31.731 17.7225 33.1843 16.6325 33.1843C16.148 33.1843 15.2599 32.8613 14.3718 32.0135C13.6855 31.3676 12.8377 30.2373 12.434 28.4206L12.3936 28.138L12.1514 28.0976C12.0303 28.0573 11.5459 27.8151 11.4247 26.8462C11.344 26.281 11.3844 25.8369 11.5055 25.514C11.2229 25.3929 11.021 25.3121 10.8192 25.191C10.6577 25.6754 10.6173 26.281 10.6981 27.0077C10.8596 28.2188 11.4651 28.7032 11.7073 28.8647L11.7881 28.905V28.9858C12.2725 30.8832 13.201 32.0943 13.9277 32.7806C14.8158 33.6283 15.8251 34.1128 16.6325 34.1128C17.4399 34.1128 18.4491 33.588 19.3373 32.7806C20.0639 32.0943 20.9925 30.8832 21.4365 28.9858V28.905L21.5173 28.8647C21.7595 28.7032 22.365 28.2188 22.5265 27.0077C22.6476 26.2406 22.6073 25.5947 22.4054 25.1506Z" fill="#4D4D4D"/>
<path d="M12.6359 26.7654C12.8378 26.7654 12.9589 26.604 12.9589 26.4425V25.8773C12.7167 25.8369 12.5148 25.7966 12.313 25.7158V26.4021C12.313 26.6443 12.4745 26.7654 12.6359 26.7654Z" fill="#4D4D4D"/>
<path d="M20.71 26.7654C20.9119 26.7654 21.033 26.604 21.033 26.4425V25.7158C20.8312 25.7562 20.5889 25.8369 20.3871 25.8773V26.4425C20.3467 26.6443 20.5082 26.7654 20.71 26.7654Z" fill="#4D4D4D"/>
<path d="M20.2256 27.1691H19.6201C19.3375 26.7654 18.8934 26.5232 18.3686 26.5232C17.8438 26.5232 17.3997 26.7654 17.1171 27.1691H16.0675C15.7849 26.7654 15.3409 26.5232 14.8161 26.5232C14.2912 26.5232 13.8472 26.7654 13.5646 27.1691H13.0398C12.7976 27.1691 12.5957 27.371 12.5957 27.6132C12.5957 27.8554 12.7976 28.0573 13.0398 28.0573H13.2416C13.2416 28.905 13.9279 29.6317 14.8161 29.6317C15.6638 29.6317 16.3905 28.9454 16.3905 28.0573H16.8346C16.8346 28.905 17.5209 29.6317 18.409 29.6317C19.2568 29.6317 19.9834 28.9454 19.9834 28.0573H20.266C20.5082 28.0573 20.7101 27.8554 20.7101 27.6132C20.6697 27.371 20.4679 27.1691 20.2256 27.1691ZM14.8161 28.9454C14.3316 28.9454 13.9279 28.5417 13.9279 28.0573C13.9279 27.5728 14.3316 27.1691 14.8161 27.1691C15.3005 27.1691 15.7042 27.5728 15.7042 28.0573C15.7042 28.5417 15.3005 28.9454 14.8161 28.9454ZM18.3686 28.9454C17.8842 28.9454 17.4805 28.5417 17.4805 28.0573C17.4805 27.5728 17.8842 27.1691 18.3686 27.1691C18.8531 27.1691 19.2568 27.5728 19.2568 28.0573C19.2568 28.5417 18.8531 28.9454 18.3686 28.9454Z" fill="#4D4D4D"/>
<path d="M90.4095 41.2178V41.6215C90.4095 41.6215 90.4498 41.6215 90.5306 41.6215C90.6517 41.6215 90.7324 41.6215 90.7728 41.5812C90.8132 41.5408 90.8132 41.5004 90.8132 41.4197C90.8132 41.2986 90.7324 41.2178 90.5306 41.2178H90.4498H90.4095ZM90.8939 42.3078L90.5709 41.783H90.4095V42.3078H90.248V41.0967H90.5709C90.8535 41.0967 91.015 41.2178 91.015 41.4197C91.015 41.5812 90.9343 41.7023 90.7728 41.7426L91.0957 42.3078H90.8939ZM91.4187 41.7023C91.4187 41.4601 91.338 41.2582 91.1765 41.0967C91.015 40.9352 90.8132 40.8545 90.5709 40.8545C90.3287 40.8545 90.1269 40.9352 89.9654 41.0967C89.8039 41.2582 89.7232 41.4601 89.7232 41.7023C89.7232 41.9445 89.8039 42.1464 89.9654 42.3078C90.1269 42.4693 90.3287 42.5501 90.5709 42.5501C90.8132 42.5501 91.015 42.4693 91.1765 42.3078C91.338 42.1464 91.4187 41.9445 91.4187 41.7023ZM89.6021 41.7023C89.6021 41.4197 89.6828 41.1775 89.8846 41.016C90.0865 40.8141 90.3287 40.7334 90.5709 40.7334C90.8535 40.7334 91.0957 40.8141 91.2572 41.016C91.4591 41.2178 91.5398 41.4601 91.5398 41.7023C91.5398 41.9849 91.4591 42.2271 91.2572 42.3886C91.0554 42.5904 90.8132 42.6712 90.5709 42.6712C90.2883 42.6712 90.0461 42.5904 89.8846 42.3886C89.6828 42.2271 89.6021 41.9849 89.6021 41.7023Z" fill="#4D4D4D"/>
<path d="M62.191 42.0656L61.3432 44.4878H62.9984L62.191 42.0656ZM63.5636 46.2237L63.2002 45.053H61.1414L60.7377 46.2237H59.8899L62.1506 40.6123H62.3525L64.4517 46.2237H63.5636Z" fill="#4D4D4D"/>
<path d="M64.6537 45.9815L64.8959 45.2952C65.2996 45.5778 65.6225 45.6989 65.8648 45.6989C66.3088 45.6989 66.5107 45.497 66.5107 45.1337C66.5107 44.8511 66.3088 44.6493 65.8648 44.4474C65.5418 44.2859 65.2996 44.1648 65.1785 44.1245C65.0574 44.0437 64.9766 43.963 64.8959 43.8419C64.8151 43.7611 64.7344 43.64 64.694 43.5189C64.6537 43.3978 64.6133 43.2767 64.6133 43.1556C64.6133 42.8326 64.7344 42.55 64.9766 42.3885C65.2188 42.1867 65.5418 42.106 65.9455 42.106C66.2281 42.106 66.6318 42.1867 67.0759 42.3885L66.874 43.0345C66.5914 42.7922 66.3088 42.7115 66.0262 42.7115C65.8648 42.7115 65.7033 42.7519 65.5822 42.8326C65.4611 42.9134 65.4207 43.0345 65.4207 43.1556C65.4207 43.3978 65.5822 43.5996 65.8648 43.7611L66.3896 44.0033C66.7125 44.1648 66.9547 44.3263 67.0759 44.4878C67.2373 44.6896 67.2777 44.8915 67.2777 45.1741C67.2777 45.5374 67.1566 45.82 66.9144 46.0219C66.6722 46.2237 66.3088 46.3448 65.8648 46.3448C65.4611 46.3044 65.0574 46.1833 64.6537 45.9815Z" fill="#4D4D4D"/>
<path d="M67.8022 45.9815L68.0445 45.2952C68.4482 45.5778 68.7711 45.6989 69.0133 45.6989C69.4574 45.6989 69.6593 45.497 69.6593 45.1337C69.6593 44.8511 69.4574 44.6493 69.0133 44.4474C68.6904 44.2859 68.4482 44.1648 68.3674 44.1245C68.2463 44.0437 68.1656 43.963 68.0848 43.8419C68.0041 43.7611 67.9234 43.64 67.883 43.5189C67.8426 43.3978 67.8022 43.2767 67.8022 43.1556C67.8022 42.8326 67.9234 42.55 68.1656 42.3885C68.4078 42.1867 68.7308 42.106 69.0941 42.106C69.3767 42.106 69.7804 42.1867 70.2244 42.3885L70.0226 43.0345C69.74 42.7922 69.4574 42.7115 69.1748 42.7115C69.0133 42.7115 68.8519 42.7519 68.7308 42.8326C68.6096 42.9134 68.5693 43.0345 68.5693 43.1556C68.5693 43.3978 68.7308 43.5996 69.0133 43.7611L69.5382 44.0033C69.8611 44.1648 70.1033 44.3263 70.2244 44.4878C70.3859 44.6896 70.4263 44.8915 70.4263 45.1741C70.4263 45.5374 70.3052 45.82 70.063 46.0219C69.8207 46.2237 69.4574 46.3448 69.0133 46.3448C68.5693 46.3044 68.1656 46.1833 67.8022 45.9815Z" fill="#4D4D4D"/>
<path d="M71.88 42.1868V44.7705C71.88 45.376 72.1626 45.699 72.6874 45.699C72.9296 45.699 73.1315 45.6182 73.3333 45.4971C73.5352 45.376 73.6563 45.2145 73.737 45.0127V42.1868H74.4637V46.2238H73.737V45.6586C73.6563 45.8201 73.4948 45.9816 73.2526 46.1027C73.0103 46.2238 72.7681 46.3045 72.5259 46.3045C72.0818 46.3045 71.7589 46.1834 71.5167 45.9412C71.2744 45.699 71.1533 45.3356 71.1533 44.8512V42.1868H71.88Z" fill="#4D4D4D"/>
<path d="M77.6124 42.8731C77.4509 42.752 77.2894 42.7117 77.1279 42.7117C76.8857 42.7117 76.6435 42.8328 76.4416 43.075C76.2398 43.3172 76.159 43.5998 76.159 43.9228V46.2642H75.4324V42.2272H76.159V42.8731C76.4013 42.3887 76.805 42.1465 77.3298 42.1465C77.4509 42.1465 77.6527 42.1869 77.8949 42.2272L77.6124 42.8731Z" fill="#4D4D4D"/>
<path d="M80.64 44.2454C80.3978 44.205 80.2363 44.1647 80.1555 44.1647C79.7922 44.1647 79.5096 44.2454 79.2674 44.4473C79.0252 44.6491 78.9041 44.851 78.9041 45.0932C78.9041 45.4969 79.1463 45.7391 79.6307 45.7391C79.9941 45.7391 80.317 45.5776 80.5996 45.2143V44.2454H80.64ZM80.7207 45.7795C80.4381 46.1428 79.9941 46.3043 79.3885 46.3043C79.0655 46.3043 78.783 46.1832 78.5811 45.941C78.3389 45.6987 78.2178 45.4161 78.2178 45.0932C78.2178 44.6895 78.3793 44.3262 78.7426 44.0436C79.1059 43.761 79.55 43.5995 80.1152 43.5995C80.2767 43.5995 80.4381 43.6399 80.64 43.6802C80.64 43.0343 80.3574 42.7114 79.7518 42.7114C79.3078 42.7114 78.9444 42.8325 78.7022 43.0747L78.4196 42.4691C78.5407 42.348 78.7426 42.2673 78.9848 42.1865C79.227 42.1058 79.4692 42.0654 79.6711 42.0654C80.2766 42.0654 80.6803 42.1865 80.9629 42.4691C81.2455 42.7517 81.3666 43.1554 81.3666 43.761V45.2143C81.3666 45.5776 81.4878 45.8198 81.6896 45.941V46.3043C81.407 46.3043 81.1648 46.2639 81.0437 46.1832C80.8822 46.1024 80.8015 45.941 80.7207 45.7795Z" fill="#4D4D4D"/>
<path d="M85 46.2238V43.8823C85 43.4382 84.9193 43.1556 84.7982 42.9942C84.6771 42.8327 84.4348 42.7519 84.1522 42.7519C83.9908 42.7519 83.8293 42.7923 83.6274 42.9134C83.466 42.9942 83.3045 43.1153 83.2237 43.2768V46.3045H82.4971V42.2675H82.9815L83.2237 42.7923C83.466 42.3886 83.8293 42.1868 84.3945 42.1868C85.2826 42.1868 85.7267 42.7116 85.7267 43.8016V46.3045H85V46.2238Z" fill="#4D4D4D"/>
<path d="M86.9781 42.7517H86.4937V42.1865H86.9781V41.3387L87.7048 41.0562V42.1865H88.8351V42.7517H87.7048V44.7702C87.7048 45.0932 87.7451 45.3354 87.8662 45.4969C87.9873 45.6583 88.1488 45.6987 88.4314 45.6987C88.6333 45.6987 88.7948 45.6583 88.9966 45.5776L89.1177 46.2235C88.8351 46.3043 88.5122 46.3446 88.1488 46.3446C87.8259 46.3446 87.5433 46.2235 87.3414 45.9813C87.1396 45.7391 87.0185 45.4565 87.0185 45.0932V42.7517H86.9781Z" fill="#4D4D4D"/>
<path d="M50.8066 42.9537V45.4163C50.8066 45.4567 50.8873 45.5374 51.0892 45.6182C51.291 45.6989 51.4121 45.7796 51.5332 45.7796C52.0581 45.7796 52.4214 45.6585 52.6232 45.4163C52.8655 45.1741 52.9462 44.7704 52.9462 44.1648C52.9462 43.6804 52.8251 43.3171 52.5425 43.0345C52.3003 42.7519 51.9369 42.6308 51.4929 42.6308C51.4121 42.6308 51.2506 42.6711 51.0892 42.7519C50.9681 42.7922 50.8469 42.873 50.8066 42.9537ZM50.6855 45.9815L50.4029 46.3852H50.0396V40.2893H50.8066V42.3482C50.8873 42.2674 51.0084 42.1463 51.2103 42.0656C51.4121 41.9848 51.614 41.9445 51.7755 41.9445C52.3406 41.9445 52.8251 42.1463 53.1884 42.55C53.5517 42.9537 53.7132 43.4785 53.7132 44.0841C53.7132 44.8108 53.5114 45.3356 53.148 45.7796C52.7847 46.1833 52.3003 46.3852 51.6947 46.3852C51.4929 46.3852 51.291 46.3448 51.0892 46.2641C50.9681 46.1833 50.8066 46.1026 50.6855 45.9815Z" fill="#4D4D4D"/>
<path d="M56.2163 47.0311C56.1355 47.3137 55.8933 47.5155 55.6107 47.7174C55.2878 47.8789 54.9648 48 54.5611 48V47.3137C54.8841 47.3137 55.1667 47.233 55.3685 47.1118C55.6107 46.9504 55.6915 46.7889 55.6915 46.587C55.6915 46.3448 55.6511 46.143 55.5704 45.9007C55.4896 45.6585 55.3685 45.3759 55.2474 45.053L54.0767 42.106H54.8437L56.0952 45.4163L57.2255 42.106H57.9926L56.2163 47.0311Z" fill="#4D4D4D"/>
<path d="M40.5528 8.23546V14.6947C41.0776 15.0984 41.6832 15.3406 42.3694 15.3406C43.7017 15.3406 44.6302 15.0176 45.2357 14.4121C45.8009 13.7662 46.0835 12.7973 46.0835 11.4247C46.0835 9.97138 45.8009 8.96212 45.2357 8.35657C44.6705 7.75102 43.7017 7.46843 42.4098 7.46843C41.6832 7.46843 41.0776 7.71065 40.5528 8.23546ZM40.5528 17.238V22.365H37.6865V5.24808H40.5528V6.05548C41.2795 5.36919 42.1676 5.00586 43.2172 5.00586C47.1331 5.00586 49.1113 7.14547 49.1113 11.4651C49.1113 13.4836 48.5864 15.0176 47.4964 16.1076C46.4065 17.1976 44.9531 17.7224 43.0557 17.7224C42.0869 17.7628 41.2795 17.6013 40.5528 17.238Z" fill="#4D4D4D"/>
<path d="M51.897 11.344C51.897 14.0488 52.8659 15.4213 54.8037 15.4213C55.6918 15.4213 56.4185 15.058 56.9433 14.3717C57.4681 13.6854 57.7103 12.6762 57.7103 11.3843C57.7103 8.7199 56.7415 7.38769 54.8037 7.38769C53.9156 7.38769 53.1889 7.75102 52.6641 8.43731C52.1393 9.12361 51.897 10.0925 51.897 11.344ZM48.9097 11.344C48.9097 9.48694 49.4345 7.95287 50.5245 6.78214C51.6145 5.61141 53.0274 5.00586 54.8037 5.00586C56.6607 5.00586 58.114 5.57104 59.1637 6.7014C60.2133 7.83176 60.6977 9.36583 60.6977 11.344C60.6977 13.3221 60.1729 14.8562 59.1233 16.0269C58.0737 17.1976 56.6203 17.7628 54.8037 17.7628C52.9467 17.7628 51.4934 17.1976 50.4437 16.0269C49.4345 14.8562 48.9097 13.2817 48.9097 11.344Z" fill="#4D4D4D"/>
<path d="M70.9919 6.21696L69.7808 8.35657C69.0945 7.71065 68.2064 7.38769 67.076 7.38769C65.986 7.38769 65.1382 7.75102 64.4923 8.47768C63.8464 9.20434 63.5638 10.2136 63.5638 11.4651C63.5638 14.0488 64.7749 15.3406 67.2375 15.3406C68.2871 15.3406 69.256 14.9773 70.0634 14.291L71.113 16.5517C70.2652 17.0765 69.5386 17.3995 68.933 17.5206C68.3275 17.6417 67.5604 17.7224 66.7127 17.7224C64.8153 17.7224 63.3216 17.1572 62.2316 16.0673C61.1416 14.9773 60.5764 13.4432 60.5764 11.4651C60.5764 9.52731 61.182 7.95287 62.3931 6.78214C63.6042 5.57104 65.219 5.00586 67.3182 5.00586C68.6908 5.00586 69.9423 5.40956 70.9919 6.21696Z" fill="#4D4D4D"/>
<path d="M74.6251 0L71.7588 0.686291V17.5206H74.6251V13.4432L75.9976 11.9899L79.631 17.5206H83.022L78.0161 9.89066L82.1743 5.24811H78.7024L74.6251 9.9714V0Z" fill="#4D4D4D"/>
<path d="M84.5966 10.1329H90.6117C90.4099 8.31629 89.4006 7.42815 87.6244 7.42815C86.0096 7.42815 85.0003 8.31629 84.5966 10.1329ZM93.2762 12.2726H84.5159C84.5562 13.2414 84.9196 14.0085 85.5251 14.5737C86.1307 15.0985 86.9784 15.3811 88.0281 15.3811C89.3199 15.3811 90.3292 15.0581 91.0154 14.3718L92.1458 16.5518C91.1365 17.3592 89.6429 17.7629 87.6244 17.7629C85.7673 17.7629 84.2736 17.1977 83.1837 16.1077C82.0937 15.0177 81.5688 13.4837 81.5688 11.5055C81.5688 9.56776 82.1744 7.99333 83.3451 6.78223C84.5562 5.57113 85.9692 4.96558 87.6647 4.96558C89.441 4.96558 90.8943 5.49039 91.944 6.54001C93.0339 7.58963 93.5588 8.96221 93.5588 10.6174C93.5184 11.0211 93.4376 11.5459 93.2762 12.2726Z" fill="#4D4D4D"/>
<path d="M95.0526 7.54922H93.6396V5.24812H95.0526V2.74518L97.9189 1.69556V5.24812H101.31V7.54922H97.9189V12.9184C97.9189 13.8066 98.04 14.4121 98.3226 14.7755C98.6052 15.1388 99.0896 15.3406 99.7759 15.3406C100.462 15.3406 101.108 15.1388 101.714 14.7755V17.3995C101.068 17.6417 100.099 17.7628 98.8474 17.7628C97.6363 17.7628 96.6674 17.3995 96.0215 16.7132C95.3756 16.0269 95.0526 15.0177 95.0526 13.7662V7.54922Z" fill="#4D4D4D"/>
<path d="M44.3877 29.0261C44.3877 29.7931 44.1859 30.3583 43.8225 30.8024C43.4592 31.2465 42.9344 31.4483 42.2481 31.4483C41.5618 31.4483 41.037 31.2465 40.5929 30.8024C40.1892 30.3583 39.9874 29.7931 39.9874 29.0261C39.9874 28.3802 40.1892 27.8554 40.5929 27.4113C40.9966 27.0076 41.5618 26.8058 42.2077 26.8058C42.8537 26.8058 43.3381 27.0076 43.7418 27.4517C44.1859 27.8554 44.3877 28.3802 44.3877 29.0261ZM46.6081 26.5232L47.9807 25.5139L45.9622 23.6973L44.8318 25.0295C44.0648 24.6258 43.1362 24.4239 42.0463 24.4239C40.6333 24.4239 39.4222 24.868 38.4533 25.7158C37.4844 26.5635 37 27.6939 37 28.9857C37 30.6813 37.6863 31.9731 39.0992 32.8613C38.6552 33.0631 38.2918 33.3457 37.9285 33.709C37.6055 34.1127 37.4441 34.5164 37.4441 34.9201C37.4441 36.3331 38.4533 37.0598 40.4315 37.0598C40.7544 37.0598 41.2389 37.0194 41.8848 36.9386C42.5307 36.8579 43.0151 36.8175 43.3381 36.8175C44.5492 36.8175 45.1144 37.1809 45.1144 37.9075C45.1144 38.3516 44.8318 38.6746 44.307 38.9168C43.7822 39.159 43.0959 39.2801 42.2481 39.2801C40.9966 39.2801 39.8663 38.836 38.857 37.9075L37.0404 40.1682C38.5744 41.2986 40.27 41.8234 42.1674 41.8234C43.7418 41.8234 45.1144 41.4601 46.2447 40.7738C47.3751 40.0471 47.9403 39.0783 47.9403 37.8268C47.9403 35.5661 46.5273 34.4357 43.7418 34.4357C43.3381 34.4357 42.8537 34.4761 42.2885 34.5972C41.7233 34.7183 41.3196 34.7587 41.0774 34.7587C40.5526 34.7587 40.27 34.5972 40.27 34.3146C40.27 34.1531 40.4315 33.9513 40.7948 33.7898C41.1581 33.6283 41.36 33.5476 41.4003 33.5476L41.8848 33.6283C42.2481 33.6687 42.4903 33.6687 42.7325 33.6687C44.0244 33.6687 45.1144 33.265 46.0025 32.4172C46.8503 31.5694 47.2944 30.4391 47.2944 29.0261C47.3347 28.138 47.0925 27.2498 46.6081 26.5232Z" fill="#0070B9"/>
<path d="M56.2162 29.5508H50.1204C50.5241 27.7342 51.5333 26.846 53.1885 26.846C55.0051 26.846 56.0144 27.7745 56.2162 29.5508ZM59.1229 30.116C59.1229 28.4608 58.5981 27.0883 57.5081 26.0386C56.4181 24.9486 54.9648 24.4238 53.1885 24.4238C51.493 24.4238 50.0396 25.0294 48.8689 26.2405C47.6578 27.4516 47.0522 29.026 47.0522 30.9638C47.0522 32.9419 47.6174 34.476 48.7074 35.6063C49.7974 36.6963 51.2911 37.2615 53.1885 37.2615C55.207 37.2615 56.7411 36.8578 57.7503 36.01L56.6199 33.7897C55.9337 34.476 54.9244 34.7989 53.6326 34.7989C52.5829 34.7989 51.7352 34.5163 51.1296 33.9915C50.5241 33.4264 50.1607 32.6593 50.1204 31.6904H58.8807C59.0422 31.0445 59.1229 30.4793 59.1229 30.116Z" fill="#0070B9"/>
<path d="M68.0043 29.5508H61.9085C62.3122 27.7342 63.3214 26.846 64.9766 26.846C66.7932 26.846 67.8025 27.7745 68.0043 29.5508ZM70.911 30.116C70.911 28.4608 70.3862 27.0883 69.2962 26.0386C68.2062 24.9486 66.7529 24.4238 64.9766 24.4238C63.281 24.4238 61.8277 25.0294 60.657 26.2405C59.4459 27.4516 58.8403 29.026 58.8403 30.9638C58.8403 32.9419 59.4055 34.476 60.4955 35.6063C61.5855 36.6963 63.0792 37.2615 64.9766 37.2615C66.9951 37.2615 68.5291 36.8578 69.5384 36.01L68.408 33.7897C67.7218 34.476 66.7125 34.7989 65.4207 34.7989C64.371 34.7989 63.5233 34.5163 62.9177 33.9915C62.3122 33.4264 61.9488 32.6593 61.9085 31.6904H70.7495C70.8302 31.0445 70.911 30.4793 70.911 30.116Z" fill="#0070B9"/>
<path d="M81.6091 37.0598L76.5629 29.3491L80.7614 24.6662H77.2492L73.1314 29.4298V19.3777L70.2651 20.064V37.0598H73.1314V32.9017L74.5444 31.4483L78.1777 37.0598H81.6091Z" fill="#0070B9"/>
<path d="M81.6897 25.5946H81.8512C82.0127 25.5946 82.1742 25.5138 82.1742 25.3523C82.1742 25.2312 82.0934 25.1101 81.8512 25.1101C81.7705 25.1101 81.7301 25.1101 81.6897 25.1101V25.5946ZM81.6897 26.3212H81.4879V24.989C81.609 24.989 81.6897 24.9486 81.8512 24.9486C82.0531 24.9486 82.1742 24.989 82.2549 25.0697C82.3357 25.1101 82.376 25.2312 82.376 25.3523C82.376 25.5138 82.2549 25.6349 82.1338 25.6753C82.2549 25.7157 82.3357 25.7964 82.376 25.9983C82.4164 26.2001 82.4568 26.2809 82.4568 26.3212H82.2146C82.1742 26.2809 82.1338 26.1597 82.1338 25.9983C82.0934 25.8368 82.0127 25.756 81.8512 25.756H81.6897V26.3212ZM81.932 24.6257C81.4072 24.6257 80.9631 25.0697 80.9631 25.6349C80.9631 26.2001 81.4072 26.6442 81.932 26.6442C82.4568 26.6442 82.9008 26.2001 82.9008 25.6349C82.9008 25.0697 82.4568 24.6257 81.932 24.6257ZM81.932 24.4238C82.5779 24.4238 83.1027 24.9486 83.1027 25.6349C83.1027 26.3212 82.5779 26.846 81.932 26.846C81.286 26.846 80.7612 26.3212 80.7612 25.6349C80.7612 24.989 81.286 24.4238 81.932 24.4238Z" fill="#0070B9"/>
<path d="M94.0834 37.0193V30.1564C94.0834 29.349 93.8815 28.703 93.4778 28.2186C93.0741 27.7341 92.5089 27.5323 91.7823 27.5323C91.2978 27.5323 90.8537 27.6534 90.3693 27.936C89.8849 28.2186 89.5215 28.5416 89.2793 28.9049V37.0193H87.3416V21.5979H89.2793V27.2901C89.5215 26.8864 89.9656 26.5634 90.5308 26.2808C91.096 25.9982 91.7015 25.8771 92.3071 25.8771C93.4778 25.8771 94.3659 26.2405 95.0119 27.0075C95.6578 27.7745 95.9807 28.8241 95.9807 30.116V36.9789H94.0834V37.0193Z" fill="#4D4D4D"/>
<path d="M97.0303 31.529C97.0303 29.8335 97.4743 28.4609 98.4029 27.4516C99.3314 26.4424 100.502 25.8772 101.996 25.8772C103.57 25.8772 104.781 26.3616 105.629 27.3709C106.477 28.3801 106.921 29.7527 106.921 31.529C106.921 33.3053 106.477 34.6779 105.589 35.6871C104.701 36.6964 103.489 37.2212 101.955 37.2212C100.381 37.2212 99.1699 36.6964 98.3221 35.6871C97.434 34.6779 97.0303 33.2649 97.0303 31.529ZM99.0488 31.529C99.0488 34.2742 100.018 35.6468 101.955 35.6468C102.844 35.6468 103.57 35.2834 104.095 34.5568C104.62 33.8301 104.862 32.8208 104.862 31.529C104.862 28.8242 103.893 27.4516 101.955 27.4516C101.067 27.4516 100.381 27.815 99.8158 28.5416C99.3314 29.2683 99.0488 30.2775 99.0488 31.529Z" fill="#4D4D4D"/>
<path d="M120.606 37.0193V30.1161C120.606 28.3801 119.88 27.5324 118.386 27.5324C117.902 27.5324 117.458 27.6939 117.054 27.9764C116.65 28.259 116.368 28.582 116.206 28.9453V37.0193H114.268V29.2683C114.268 28.7435 114.066 28.2994 113.663 27.9764C113.259 27.6535 112.734 27.492 112.048 27.492C111.644 27.492 111.241 27.6535 110.796 27.9361C110.352 28.2187 110.029 28.582 109.868 28.9453V37.0193H107.93V26.079H109.182L109.828 27.3305C110.595 26.3616 111.523 25.8772 112.653 25.8772C114.228 25.8772 115.318 26.3616 115.964 27.3305C116.166 26.9268 116.569 26.5635 117.175 26.2809C117.78 25.9983 118.386 25.8772 118.992 25.8772C120.122 25.8772 121.01 26.2002 121.616 26.8864C122.221 27.5727 122.544 28.5013 122.544 29.7124V37.0193H120.606Z" fill="#4D4D4D"/>
<path d="M133.484 31.7307H125.612C125.612 33.0225 125.976 33.9914 126.662 34.6777C127.268 35.2833 128.075 35.5659 129.044 35.5659C130.174 35.5659 131.062 35.2429 131.829 34.597L132.637 36.0099C132.354 36.2925 131.87 36.5751 131.264 36.777C130.497 37.0595 129.609 37.221 128.68 37.221C127.308 37.221 126.137 36.7366 125.168 35.8081C124.119 34.7988 123.553 33.3859 123.553 31.65C123.553 29.8333 124.119 28.38 125.209 27.29C126.178 26.3211 127.348 25.8367 128.68 25.8367C130.255 25.8367 131.466 26.2807 132.354 27.1689C133.202 28.0167 133.646 29.147 133.646 30.5196C133.646 31.004 133.565 31.3674 133.484 31.7307ZM128.761 27.5322C127.913 27.5322 127.187 27.8148 126.581 28.38C126.016 28.9048 125.693 29.5911 125.612 30.3581H131.668C131.668 29.5911 131.426 28.9048 130.941 28.38C130.416 27.8148 129.69 27.5322 128.761 27.5322Z" fill="#4D4D4D"/>
</svg>
